G04 #@! TF.GenerationSoftware,KiCad,Pcbnew,(5.1.8)-1*
G04 #@! TF.CreationDate,2021-03-23T16:42:47+09:00*
G04 #@! TF.ProjectId,NEW_KANJI_ROM,4e45575f-4b41-44e4-9a49-5f524f4d2e6b,rev?*
G04 #@! TF.SameCoordinates,PX312c610PY9b45830*
G04 #@! TF.FileFunction,Legend,Top*
G04 #@! TF.FilePolarity,Positive*
%FSLAX46Y46*%
G04 Gerber Fmt 4.6, Leading zero omitted, Abs format (unit mm)*
G04 Created by KiCad (PCBNEW (5.1.8)-1) date 2021-03-23 16:42:47*
%MOMM*%
%LPD*%
G01*
G04 APERTURE LIST*
%ADD10C,0.150000*%
%ADD11C,0.200000*%
%ADD12C,0.120000*%
G04 APERTURE END LIST*
D10*
X81035380Y61325667D02*
X80035380Y61325667D01*
X80035380Y61563762D01*
X80083000Y61706620D01*
X80178238Y61801858D01*
X80273476Y61849477D01*
X80463952Y61897096D01*
X80606809Y61897096D01*
X80797285Y61849477D01*
X80892523Y61801858D01*
X80987761Y61706620D01*
X81035380Y61563762D01*
X81035380Y61325667D01*
X80987761Y62706620D02*
X81035380Y62611381D01*
X81035380Y62420905D01*
X80987761Y62325667D01*
X80892523Y62278048D01*
X80511571Y62278048D01*
X80416333Y62325667D01*
X80368714Y62420905D01*
X80368714Y62611381D01*
X80416333Y62706620D01*
X80511571Y62754239D01*
X80606809Y62754239D01*
X80702047Y62278048D01*
X80987761Y63135191D02*
X81035380Y63230429D01*
X81035380Y63420905D01*
X80987761Y63516143D01*
X80892523Y63563762D01*
X80844904Y63563762D01*
X80749666Y63516143D01*
X80702047Y63420905D01*
X80702047Y63278048D01*
X80654428Y63182810D01*
X80559190Y63135191D01*
X80511571Y63135191D01*
X80416333Y63182810D01*
X80368714Y63278048D01*
X80368714Y63420905D01*
X80416333Y63516143D01*
X81035380Y63992334D02*
X80368714Y63992334D01*
X80035380Y63992334D02*
X80083000Y63944715D01*
X80130619Y63992334D01*
X80083000Y64039953D01*
X80035380Y63992334D01*
X80130619Y63992334D01*
X80368714Y64897096D02*
X81178238Y64897096D01*
X81273476Y64849477D01*
X81321095Y64801858D01*
X81368714Y64706620D01*
X81368714Y64563762D01*
X81321095Y64468524D01*
X80987761Y64897096D02*
X81035380Y64801858D01*
X81035380Y64611381D01*
X80987761Y64516143D01*
X80940142Y64468524D01*
X80844904Y64420905D01*
X80559190Y64420905D01*
X80463952Y64468524D01*
X80416333Y64516143D01*
X80368714Y64611381D01*
X80368714Y64801858D01*
X80416333Y64897096D01*
X80368714Y65373286D02*
X81035380Y65373286D01*
X80463952Y65373286D02*
X80416333Y65420905D01*
X80368714Y65516143D01*
X80368714Y65659000D01*
X80416333Y65754239D01*
X80511571Y65801858D01*
X81035380Y65801858D01*
X80987761Y66659000D02*
X81035380Y66563762D01*
X81035380Y66373286D01*
X80987761Y66278048D01*
X80892523Y66230429D01*
X80511571Y66230429D01*
X80416333Y66278048D01*
X80368714Y66373286D01*
X80368714Y66563762D01*
X80416333Y66659000D01*
X80511571Y66706620D01*
X80606809Y66706620D01*
X80702047Y66230429D01*
X81035380Y67563762D02*
X80035380Y67563762D01*
X80987761Y67563762D02*
X81035380Y67468524D01*
X81035380Y67278048D01*
X80987761Y67182810D01*
X80940142Y67135191D01*
X80844904Y67087572D01*
X80559190Y67087572D01*
X80463952Y67135191D01*
X80416333Y67182810D01*
X80368714Y67278048D01*
X80368714Y67468524D01*
X80416333Y67563762D01*
X81035380Y68801858D02*
X80035380Y68801858D01*
X80416333Y68801858D02*
X80368714Y68897096D01*
X80368714Y69087572D01*
X80416333Y69182810D01*
X80463952Y69230429D01*
X80559190Y69278048D01*
X80844904Y69278048D01*
X80940142Y69230429D01*
X80987761Y69182810D01*
X81035380Y69087572D01*
X81035380Y68897096D01*
X80987761Y68801858D01*
X80368714Y69611381D02*
X81035380Y69849477D01*
X80368714Y70087572D02*
X81035380Y69849477D01*
X81273476Y69754239D01*
X81321095Y69706620D01*
X81368714Y69611381D01*
X82637761Y61301858D02*
X82685380Y61444715D01*
X82685380Y61682810D01*
X82637761Y61778048D01*
X82590142Y61825667D01*
X82494904Y61873286D01*
X82399666Y61873286D01*
X82304428Y61825667D01*
X82256809Y61778048D01*
X82209190Y61682810D01*
X82161571Y61492334D01*
X82113952Y61397096D01*
X82066333Y61349477D01*
X81971095Y61301858D01*
X81875857Y61301858D01*
X81780619Y61349477D01*
X81733000Y61397096D01*
X81685380Y61492334D01*
X81685380Y61730429D01*
X81733000Y61873286D01*
X82685380Y62730429D02*
X82161571Y62730429D01*
X82066333Y62682810D01*
X82018714Y62587572D01*
X82018714Y62397096D01*
X82066333Y62301858D01*
X82637761Y62730429D02*
X82685380Y62635191D01*
X82685380Y62397096D01*
X82637761Y62301858D01*
X82542523Y62254239D01*
X82447285Y62254239D01*
X82352047Y62301858D01*
X82304428Y62397096D01*
X82304428Y62635191D01*
X82256809Y62730429D01*
X82637761Y63159000D02*
X82685380Y63254239D01*
X82685380Y63444715D01*
X82637761Y63539953D01*
X82542523Y63587572D01*
X82494904Y63587572D01*
X82399666Y63539953D01*
X82352047Y63444715D01*
X82352047Y63301858D01*
X82304428Y63206620D01*
X82209190Y63159000D01*
X82161571Y63159000D01*
X82066333Y63206620D01*
X82018714Y63301858D01*
X82018714Y63444715D01*
X82066333Y63539953D01*
X82685380Y64444715D02*
X82161571Y64444715D01*
X82066333Y64397096D01*
X82018714Y64301858D01*
X82018714Y64111381D01*
X82066333Y64016143D01*
X82637761Y64444715D02*
X82685380Y64349477D01*
X82685380Y64111381D01*
X82637761Y64016143D01*
X82542523Y63968524D01*
X82447285Y63968524D01*
X82352047Y64016143D01*
X82304428Y64111381D01*
X82304428Y64349477D01*
X82256809Y64444715D01*
X82018714Y64920905D02*
X82875857Y64920905D01*
X82971095Y64873286D01*
X83018714Y64778048D01*
X83018714Y64730429D01*
X81685380Y64920905D02*
X81733000Y64873286D01*
X81780619Y64920905D01*
X81733000Y64968524D01*
X81685380Y64920905D01*
X81780619Y64920905D01*
X82685380Y65397096D02*
X82018714Y65397096D01*
X81685380Y65397096D02*
X81733000Y65349477D01*
X81780619Y65397096D01*
X81733000Y65444715D01*
X81685380Y65397096D01*
X81780619Y65397096D01*
X81780619Y66587572D02*
X81733000Y66635191D01*
X81685380Y66730429D01*
X81685380Y66968524D01*
X81733000Y67063762D01*
X81780619Y67111381D01*
X81875857Y67159000D01*
X81971095Y67159000D01*
X82113952Y67111381D01*
X82685380Y66539953D01*
X82685380Y67159000D01*
X81685380Y67778048D02*
X81685380Y67873286D01*
X81733000Y67968524D01*
X81780619Y68016143D01*
X81875857Y68063762D01*
X82066333Y68111381D01*
X82304428Y68111381D01*
X82494904Y68063762D01*
X82590142Y68016143D01*
X82637761Y67968524D01*
X82685380Y67873286D01*
X82685380Y67778048D01*
X82637761Y67682810D01*
X82590142Y67635191D01*
X82494904Y67587572D01*
X82304428Y67539953D01*
X82066333Y67539953D01*
X81875857Y67587572D01*
X81780619Y67635191D01*
X81733000Y67682810D01*
X81685380Y67778048D01*
X81780619Y68492334D02*
X81733000Y68539953D01*
X81685380Y68635191D01*
X81685380Y68873286D01*
X81733000Y68968524D01*
X81780619Y69016143D01*
X81875857Y69063762D01*
X81971095Y69063762D01*
X82113952Y69016143D01*
X82685380Y68444715D01*
X82685380Y69063762D01*
X82685380Y70016143D02*
X82685380Y69444715D01*
X82685380Y69730429D02*
X81685380Y69730429D01*
X81828238Y69635191D01*
X81923476Y69539953D01*
X81971095Y69444715D01*
X85985380Y63349477D02*
X85509190Y63016143D01*
X85985380Y62778048D02*
X84985380Y62778048D01*
X84985380Y63159000D01*
X85033000Y63254239D01*
X85080619Y63301858D01*
X85175857Y63349477D01*
X85318714Y63349477D01*
X85413952Y63301858D01*
X85461571Y63254239D01*
X85509190Y63159000D01*
X85509190Y62778048D01*
X85937761Y64159000D02*
X85985380Y64063762D01*
X85985380Y63873286D01*
X85937761Y63778048D01*
X85842523Y63730429D01*
X85461571Y63730429D01*
X85366333Y63778048D01*
X85318714Y63873286D01*
X85318714Y64063762D01*
X85366333Y64159000D01*
X85461571Y64206620D01*
X85556809Y64206620D01*
X85652047Y63730429D01*
X85318714Y64539953D02*
X85985380Y64778048D01*
X85318714Y65016143D01*
X85890142Y65397096D02*
X85937761Y65444715D01*
X85985380Y65397096D01*
X85937761Y65349477D01*
X85890142Y65397096D01*
X85985380Y65397096D01*
X84985380Y66825667D02*
X84985380Y66920905D01*
X85033000Y67016143D01*
X85080619Y67063762D01*
X85175857Y67111381D01*
X85366333Y67159000D01*
X85604428Y67159000D01*
X85794904Y67111381D01*
X85890142Y67063762D01*
X85937761Y67016143D01*
X85985380Y66920905D01*
X85985380Y66825667D01*
X85937761Y66730429D01*
X85890142Y66682810D01*
X85794904Y66635191D01*
X85604428Y66587572D01*
X85366333Y66587572D01*
X85175857Y66635191D01*
X85080619Y66682810D01*
X85033000Y66730429D01*
X84985380Y66825667D01*
X85890142Y67587572D02*
X85937761Y67635191D01*
X85985380Y67587572D01*
X85937761Y67539953D01*
X85890142Y67587572D01*
X85985380Y67587572D01*
X85985380Y68587572D02*
X85985380Y68016143D01*
X85985380Y68301858D02*
X84985380Y68301858D01*
X85128238Y68206620D01*
X85223476Y68111381D01*
X85271095Y68016143D01*
D11*
X74891571Y51689715D02*
X73391571Y51689715D01*
X74891571Y52261143D02*
X74034428Y51832572D01*
X73391571Y52261143D02*
X74248714Y51689715D01*
X74891571Y53118286D02*
X74105857Y53118286D01*
X73963000Y53070667D01*
X73891571Y52975429D01*
X73891571Y52784953D01*
X73963000Y52689715D01*
X74820142Y53118286D02*
X74891571Y53023048D01*
X74891571Y52784953D01*
X74820142Y52689715D01*
X74677285Y52642096D01*
X74534428Y52642096D01*
X74391571Y52689715D01*
X74320142Y52784953D01*
X74320142Y53023048D01*
X74248714Y53118286D01*
X73891571Y53594477D02*
X74891571Y53594477D01*
X74034428Y53594477D02*
X73963000Y53642096D01*
X73891571Y53737334D01*
X73891571Y53880191D01*
X73963000Y53975429D01*
X74105857Y54023048D01*
X74891571Y54023048D01*
X73891571Y54499239D02*
X75177285Y54499239D01*
X75320142Y54451620D01*
X75391571Y54356381D01*
X75391571Y54308762D01*
X73391571Y54499239D02*
X73463000Y54451620D01*
X73534428Y54499239D01*
X73463000Y54546858D01*
X73391571Y54499239D01*
X73534428Y54499239D01*
X74891571Y54975429D02*
X73891571Y54975429D01*
X73391571Y54975429D02*
X73463000Y54927810D01*
X73534428Y54975429D01*
X73463000Y55023048D01*
X73391571Y54975429D01*
X73534428Y54975429D01*
X74891571Y56784953D02*
X74177285Y56451620D01*
X74891571Y56213524D02*
X73391571Y56213524D01*
X73391571Y56594477D01*
X73463000Y56689715D01*
X73534428Y56737334D01*
X73677285Y56784953D01*
X73891571Y56784953D01*
X74034428Y56737334D01*
X74105857Y56689715D01*
X74177285Y56594477D01*
X74177285Y56213524D01*
X73391571Y57404000D02*
X73391571Y57594477D01*
X73463000Y57689715D01*
X73605857Y57784953D01*
X73891571Y57832572D01*
X74391571Y57832572D01*
X74677285Y57784953D01*
X74820142Y57689715D01*
X74891571Y57594477D01*
X74891571Y57404000D01*
X74820142Y57308762D01*
X74677285Y57213524D01*
X74391571Y57165905D01*
X73891571Y57165905D01*
X73605857Y57213524D01*
X73463000Y57308762D01*
X73391571Y57404000D01*
X74891571Y58261143D02*
X73391571Y58261143D01*
X74463000Y58594477D01*
X73391571Y58927810D01*
X74891571Y58927810D01*
X74748714Y60737334D02*
X74820142Y60689715D01*
X74891571Y60546858D01*
X74891571Y60451620D01*
X74820142Y60308762D01*
X74677285Y60213524D01*
X74534428Y60165905D01*
X74248714Y60118286D01*
X74034428Y60118286D01*
X73748714Y60165905D01*
X73605857Y60213524D01*
X73463000Y60308762D01*
X73391571Y60451620D01*
X73391571Y60546858D01*
X73463000Y60689715D01*
X73534428Y60737334D01*
X74891571Y61594477D02*
X74105857Y61594477D01*
X73963000Y61546858D01*
X73891571Y61451620D01*
X73891571Y61261143D01*
X73963000Y61165905D01*
X74820142Y61594477D02*
X74891571Y61499239D01*
X74891571Y61261143D01*
X74820142Y61165905D01*
X74677285Y61118286D01*
X74534428Y61118286D01*
X74391571Y61165905D01*
X74320142Y61261143D01*
X74320142Y61499239D01*
X74248714Y61594477D01*
X74891571Y62070667D02*
X73891571Y62070667D01*
X74177285Y62070667D02*
X74034428Y62118286D01*
X73963000Y62165905D01*
X73891571Y62261143D01*
X73891571Y62356381D01*
X74891571Y63118286D02*
X73391571Y63118286D01*
X74820142Y63118286D02*
X74891571Y63023048D01*
X74891571Y62832572D01*
X74820142Y62737334D01*
X74748714Y62689715D01*
X74605857Y62642096D01*
X74177285Y62642096D01*
X74034428Y62689715D01*
X73963000Y62737334D01*
X73891571Y62832572D01*
X73891571Y63023048D01*
X73963000Y63118286D01*
X76341571Y44523048D02*
X76341571Y44904000D01*
X77341571Y44665905D02*
X76055857Y44665905D01*
X75913000Y44713524D01*
X75841571Y44808762D01*
X75841571Y44904000D01*
X77341571Y45380191D02*
X77270142Y45284953D01*
X77198714Y45237334D01*
X77055857Y45189715D01*
X76627285Y45189715D01*
X76484428Y45237334D01*
X76413000Y45284953D01*
X76341571Y45380191D01*
X76341571Y45523048D01*
X76413000Y45618286D01*
X76484428Y45665905D01*
X76627285Y45713524D01*
X77055857Y45713524D01*
X77198714Y45665905D01*
X77270142Y45618286D01*
X77341571Y45523048D01*
X77341571Y45380191D01*
X77341571Y46142096D02*
X76341571Y46142096D01*
X76627285Y46142096D02*
X76484428Y46189715D01*
X76413000Y46237334D01*
X76341571Y46332572D01*
X76341571Y46427810D01*
X77341571Y47523048D02*
X75841571Y47523048D01*
X76555857Y47523048D02*
X76555857Y48094477D01*
X77341571Y48094477D02*
X75841571Y48094477D01*
X77341571Y48570667D02*
X75841571Y48570667D01*
X75841571Y48904000D02*
X75841571Y49475429D01*
X77341571Y49189715D02*
X75841571Y49189715D01*
X76913000Y49761143D02*
X76913000Y50237334D01*
X77341571Y49665905D02*
X75841571Y49999239D01*
X77341571Y50332572D01*
X77198714Y51237334D02*
X77270142Y51189715D01*
X77341571Y51046858D01*
X77341571Y50951620D01*
X77270142Y50808762D01*
X77127285Y50713524D01*
X76984428Y50665905D01*
X76698714Y50618286D01*
X76484428Y50618286D01*
X76198714Y50665905D01*
X76055857Y50713524D01*
X75913000Y50808762D01*
X75841571Y50951620D01*
X75841571Y51046858D01*
X75913000Y51189715D01*
X75984428Y51237334D01*
X77341571Y51665905D02*
X75841571Y51665905D01*
X76555857Y51665905D02*
X76555857Y52237334D01*
X77341571Y52237334D02*
X75841571Y52237334D01*
X77341571Y52713524D02*
X75841571Y52713524D01*
X76555857Y54284953D02*
X76627285Y54427810D01*
X76698714Y54475429D01*
X76841571Y54523048D01*
X77055857Y54523048D01*
X77198714Y54475429D01*
X77270142Y54427810D01*
X77341571Y54332572D01*
X77341571Y53951620D01*
X75841571Y53951620D01*
X75841571Y54284953D01*
X75913000Y54380191D01*
X75984428Y54427810D01*
X76127285Y54475429D01*
X76270142Y54475429D01*
X76413000Y54427810D01*
X76484428Y54380191D01*
X76555857Y54284953D01*
X76555857Y53951620D01*
X76913000Y54904000D02*
X76913000Y55380191D01*
X77341571Y54808762D02*
X75841571Y55142096D01*
X77341571Y55475429D01*
X77270142Y55761143D02*
X77341571Y55904000D01*
X77341571Y56142096D01*
X77270142Y56237334D01*
X77198714Y56284953D01*
X77055857Y56332572D01*
X76913000Y56332572D01*
X76770142Y56284953D01*
X76698714Y56237334D01*
X76627285Y56142096D01*
X76555857Y55951620D01*
X76484428Y55856381D01*
X76413000Y55808762D01*
X76270142Y55761143D01*
X76127285Y55761143D01*
X75984428Y55808762D01*
X75913000Y55856381D01*
X75841571Y55951620D01*
X75841571Y56189715D01*
X75913000Y56332572D01*
X77341571Y56761143D02*
X75841571Y56761143D01*
X77198714Y57808762D02*
X77270142Y57761143D01*
X77341571Y57618286D01*
X77341571Y57523048D01*
X77270142Y57380191D01*
X77127285Y57284953D01*
X76984428Y57237334D01*
X76698714Y57189715D01*
X76484428Y57189715D01*
X76198714Y57237334D01*
X76055857Y57284953D01*
X75913000Y57380191D01*
X75841571Y57523048D01*
X75841571Y57618286D01*
X75913000Y57761143D01*
X75984428Y57808762D01*
X77341571Y58999239D02*
X75841571Y58999239D01*
X76913000Y59332572D01*
X75841571Y59665905D01*
X77341571Y59665905D01*
X76913000Y60094477D02*
X76913000Y60570667D01*
X77341571Y59999239D02*
X75841571Y60332572D01*
X77341571Y60665905D01*
X77270142Y60951620D02*
X77341571Y61094477D01*
X77341571Y61332572D01*
X77270142Y61427810D01*
X77198714Y61475429D01*
X77055857Y61523048D01*
X76913000Y61523048D01*
X76770142Y61475429D01*
X76698714Y61427810D01*
X76627285Y61332572D01*
X76555857Y61142096D01*
X76484428Y61046858D01*
X76413000Y60999239D01*
X76270142Y60951620D01*
X76127285Y60951620D01*
X75984428Y60999239D01*
X75913000Y61046858D01*
X75841571Y61142096D01*
X75841571Y61380191D01*
X75913000Y61523048D01*
X75841571Y61808762D02*
X75841571Y62380191D01*
X77341571Y62094477D02*
X75841571Y62094477D01*
X76555857Y62713524D02*
X76555857Y63046858D01*
X77341571Y63189715D02*
X77341571Y62713524D01*
X75841571Y62713524D01*
X75841571Y63189715D01*
X77341571Y64189715D02*
X76627285Y63856381D01*
X77341571Y63618286D02*
X75841571Y63618286D01*
X75841571Y63999239D01*
X75913000Y64094477D01*
X75984428Y64142096D01*
X76127285Y64189715D01*
X76341571Y64189715D01*
X76484428Y64142096D01*
X76555857Y64094477D01*
X76627285Y63999239D01*
X76627285Y63618286D01*
X77341571Y65856381D02*
X77341571Y65380191D01*
X75841571Y65380191D01*
X76555857Y66189715D02*
X76555857Y66523048D01*
X77341571Y66665905D02*
X77341571Y66189715D01*
X75841571Y66189715D01*
X75841571Y66665905D01*
X75841571Y66951620D02*
X77341571Y67284953D01*
X75841571Y67618286D01*
X76555857Y67951620D02*
X76555857Y68284953D01*
X77341571Y68427810D02*
X77341571Y67951620D01*
X75841571Y67951620D01*
X75841571Y68427810D01*
X77341571Y69332572D02*
X77341571Y68856381D01*
X75841571Y68856381D01*
X75841571Y69570667D02*
X75841571Y70189715D01*
X76413000Y69856381D01*
X76413000Y69999239D01*
X76484428Y70094477D01*
X76555857Y70142096D01*
X76698714Y70189715D01*
X77055857Y70189715D01*
X77198714Y70142096D01*
X77270142Y70094477D01*
X77341571Y69999239D01*
X77341571Y69713524D01*
X77270142Y69618286D01*
X77198714Y69570667D01*
D12*
X36128000Y44824000D02*
X25848000Y44824000D01*
X36128000Y19184000D02*
X36128000Y44824000D01*
X25848000Y19184000D02*
X36128000Y19184000D01*
X25848000Y44824000D02*
X25848000Y19184000D01*
X33638000Y44764000D02*
X31988000Y44764000D01*
X33638000Y19244000D02*
X33638000Y44764000D01*
X28338000Y19244000D02*
X33638000Y19244000D01*
X28338000Y44764000D02*
X28338000Y19244000D01*
X29988000Y44764000D02*
X28338000Y44764000D01*
X31988000Y44764000D02*
G75*
G02*
X29988000Y44764000I-1000000J0D01*
G01*
X5528000Y57674000D02*
X5528000Y52214000D01*
X5528000Y52214000D02*
X46288000Y52214000D01*
X46288000Y52214000D02*
X46288000Y65134000D01*
X46288000Y65134000D02*
X5528000Y65134000D01*
X5528000Y65134000D02*
X5528000Y59674000D01*
X5468000Y49724000D02*
X46348000Y49724000D01*
X46348000Y49724000D02*
X46348000Y67624000D01*
X46348000Y67624000D02*
X5468000Y67624000D01*
X5468000Y67624000D02*
X5468000Y49724000D01*
X5528000Y59674000D02*
G75*
G02*
X5528000Y57674000I0J-1000000D01*
G01*
X81848000Y39744000D02*
X71568000Y39744000D01*
X81848000Y21724000D02*
X81848000Y39744000D01*
X71568000Y21724000D02*
X81848000Y21724000D01*
X71568000Y39744000D02*
X71568000Y21724000D01*
X79358000Y39684000D02*
X77708000Y39684000D01*
X79358000Y21784000D02*
X79358000Y39684000D01*
X74058000Y21784000D02*
X79358000Y21784000D01*
X74058000Y39684000D02*
X74058000Y21784000D01*
X75708000Y39684000D02*
X74058000Y39684000D01*
X77708000Y39684000D02*
G75*
G02*
X75708000Y39684000I-1000000J0D01*
G01*
X66608000Y39744000D02*
X56328000Y39744000D01*
X66608000Y21724000D02*
X66608000Y39744000D01*
X56328000Y21724000D02*
X66608000Y21724000D01*
X56328000Y39744000D02*
X56328000Y21724000D01*
X64118000Y39684000D02*
X62468000Y39684000D01*
X64118000Y21784000D02*
X64118000Y39684000D01*
X58818000Y21784000D02*
X64118000Y21784000D01*
X58818000Y39684000D02*
X58818000Y21784000D01*
X60468000Y39684000D02*
X58818000Y39684000D01*
X62468000Y39684000D02*
G75*
G02*
X60468000Y39684000I-1000000J0D01*
G01*
X51368000Y44824000D02*
X41088000Y44824000D01*
X51368000Y26804000D02*
X51368000Y44824000D01*
X41088000Y26804000D02*
X51368000Y26804000D01*
X41088000Y44824000D02*
X41088000Y26804000D01*
X48878000Y44764000D02*
X47228000Y44764000D01*
X48878000Y26864000D02*
X48878000Y44764000D01*
X43578000Y26864000D02*
X48878000Y26864000D01*
X43578000Y44764000D02*
X43578000Y26864000D01*
X45228000Y44764000D02*
X43578000Y44764000D01*
X47228000Y44764000D02*
G75*
G02*
X45228000Y44764000I-1000000J0D01*
G01*
X66608000Y65144000D02*
X56328000Y65144000D01*
X66608000Y44584000D02*
X66608000Y65144000D01*
X56328000Y44584000D02*
X66608000Y44584000D01*
X56328000Y65144000D02*
X56328000Y44584000D01*
X64118000Y65084000D02*
X62468000Y65084000D01*
X64118000Y44644000D02*
X64118000Y65084000D01*
X58818000Y44644000D02*
X64118000Y44644000D01*
X58818000Y65084000D02*
X58818000Y44644000D01*
X60468000Y65084000D02*
X58818000Y65084000D01*
X62468000Y65084000D02*
G75*
G02*
X60468000Y65084000I-1000000J0D01*
G01*
X20888000Y44824000D02*
X10608000Y44824000D01*
X20888000Y19184000D02*
X20888000Y44824000D01*
X10608000Y19184000D02*
X20888000Y19184000D01*
X10608000Y44824000D02*
X10608000Y19184000D01*
X18398000Y44764000D02*
X16748000Y44764000D01*
X18398000Y19244000D02*
X18398000Y44764000D01*
X13098000Y19244000D02*
X18398000Y19244000D01*
X13098000Y44764000D02*
X13098000Y19244000D01*
X14748000Y44764000D02*
X13098000Y44764000D01*
X16748000Y44764000D02*
G75*
G02*
X14748000Y44764000I-1000000J0D01*
G01*
X49403000Y63979000D02*
X49403000Y64019000D01*
X50263000Y63119000D02*
G75*
G03*
X50263000Y63119000I-860000J0D01*
G01*
X77275000Y42390000D02*
X76101000Y42390000D01*
X77275000Y40668000D02*
X76101000Y40668000D01*
X62075000Y42390000D02*
X60901000Y42390000D01*
X62075000Y40668000D02*
X60901000Y40668000D01*
X46835000Y47470000D02*
X45661000Y47470000D01*
X46835000Y45748000D02*
X45661000Y45748000D01*
X62075000Y67790000D02*
X60901000Y67790000D01*
X62075000Y66068000D02*
X60901000Y66068000D01*
X31595000Y47470000D02*
X30421000Y47470000D01*
X31595000Y45748000D02*
X30421000Y45748000D01*
X16355000Y47470000D02*
X15181000Y47470000D01*
X16355000Y45748000D02*
X15181000Y45748000D01*
X5568000Y31394000D02*
X5568000Y24994000D01*
X5608000Y31394000D02*
X5608000Y24994000D01*
X5648000Y31394000D02*
X5648000Y24994000D01*
X5688000Y31392000D02*
X5688000Y24996000D01*
X5728000Y31391000D02*
X5728000Y24997000D01*
X5768000Y31388000D02*
X5768000Y25000000D01*
X5808000Y31386000D02*
X5808000Y25002000D01*
X5848000Y31382000D02*
X5848000Y29174000D01*
X5848000Y27214000D02*
X5848000Y25006000D01*
X5888000Y31379000D02*
X5888000Y29174000D01*
X5888000Y27214000D02*
X5888000Y25009000D01*
X5928000Y31374000D02*
X5928000Y29174000D01*
X5928000Y27214000D02*
X5928000Y25014000D01*
X5968000Y31370000D02*
X5968000Y29174000D01*
X5968000Y27214000D02*
X5968000Y25018000D01*
X6008000Y31364000D02*
X6008000Y29174000D01*
X6008000Y27214000D02*
X6008000Y25024000D01*
X6048000Y31359000D02*
X6048000Y29174000D01*
X6048000Y27214000D02*
X6048000Y25029000D01*
X6088000Y31352000D02*
X6088000Y29174000D01*
X6088000Y27214000D02*
X6088000Y25036000D01*
X6128000Y31346000D02*
X6128000Y29174000D01*
X6128000Y27214000D02*
X6128000Y25042000D01*
X6168000Y31338000D02*
X6168000Y29174000D01*
X6168000Y27214000D02*
X6168000Y25050000D01*
X6208000Y31331000D02*
X6208000Y29174000D01*
X6208000Y27214000D02*
X6208000Y25057000D01*
X6248000Y31322000D02*
X6248000Y29174000D01*
X6248000Y27214000D02*
X6248000Y25066000D01*
X6289000Y31313000D02*
X6289000Y29174000D01*
X6289000Y27214000D02*
X6289000Y25075000D01*
X6329000Y31304000D02*
X6329000Y29174000D01*
X6329000Y27214000D02*
X6329000Y25084000D01*
X6369000Y31294000D02*
X6369000Y29174000D01*
X6369000Y27214000D02*
X6369000Y25094000D01*
X6409000Y31284000D02*
X6409000Y29174000D01*
X6409000Y27214000D02*
X6409000Y25104000D01*
X6449000Y31273000D02*
X6449000Y29174000D01*
X6449000Y27214000D02*
X6449000Y25115000D01*
X6489000Y31261000D02*
X6489000Y29174000D01*
X6489000Y27214000D02*
X6489000Y25127000D01*
X6529000Y31249000D02*
X6529000Y29174000D01*
X6529000Y27214000D02*
X6529000Y25139000D01*
X6569000Y31236000D02*
X6569000Y29174000D01*
X6569000Y27214000D02*
X6569000Y25152000D01*
X6609000Y31223000D02*
X6609000Y29174000D01*
X6609000Y27214000D02*
X6609000Y25165000D01*
X6649000Y31209000D02*
X6649000Y29174000D01*
X6649000Y27214000D02*
X6649000Y25179000D01*
X6689000Y31195000D02*
X6689000Y29174000D01*
X6689000Y27214000D02*
X6689000Y25193000D01*
X6729000Y31180000D02*
X6729000Y29174000D01*
X6729000Y27214000D02*
X6729000Y25208000D01*
X6769000Y31164000D02*
X6769000Y29174000D01*
X6769000Y27214000D02*
X6769000Y25224000D01*
X6809000Y31148000D02*
X6809000Y29174000D01*
X6809000Y27214000D02*
X6809000Y25240000D01*
X6849000Y31131000D02*
X6849000Y29174000D01*
X6849000Y27214000D02*
X6849000Y25257000D01*
X6889000Y31113000D02*
X6889000Y29174000D01*
X6889000Y27214000D02*
X6889000Y25275000D01*
X6929000Y31095000D02*
X6929000Y29174000D01*
X6929000Y27214000D02*
X6929000Y25293000D01*
X6969000Y31076000D02*
X6969000Y29174000D01*
X6969000Y27214000D02*
X6969000Y25312000D01*
X7009000Y31057000D02*
X7009000Y29174000D01*
X7009000Y27214000D02*
X7009000Y25331000D01*
X7049000Y31037000D02*
X7049000Y29174000D01*
X7049000Y27214000D02*
X7049000Y25351000D01*
X7089000Y31016000D02*
X7089000Y29174000D01*
X7089000Y27214000D02*
X7089000Y25372000D01*
X7129000Y30994000D02*
X7129000Y29174000D01*
X7129000Y27214000D02*
X7129000Y25394000D01*
X7169000Y30972000D02*
X7169000Y29174000D01*
X7169000Y27214000D02*
X7169000Y25416000D01*
X7209000Y30949000D02*
X7209000Y29174000D01*
X7209000Y27214000D02*
X7209000Y25439000D01*
X7249000Y30925000D02*
X7249000Y29174000D01*
X7249000Y27214000D02*
X7249000Y25463000D01*
X7289000Y30900000D02*
X7289000Y29174000D01*
X7289000Y27214000D02*
X7289000Y25488000D01*
X7329000Y30875000D02*
X7329000Y29174000D01*
X7329000Y27214000D02*
X7329000Y25513000D01*
X7369000Y30848000D02*
X7369000Y29174000D01*
X7369000Y27214000D02*
X7369000Y25540000D01*
X7409000Y30821000D02*
X7409000Y29174000D01*
X7409000Y27214000D02*
X7409000Y25567000D01*
X7449000Y30793000D02*
X7449000Y29174000D01*
X7449000Y27214000D02*
X7449000Y25595000D01*
X7489000Y30764000D02*
X7489000Y29174000D01*
X7489000Y27214000D02*
X7489000Y25624000D01*
X7529000Y30734000D02*
X7529000Y29174000D01*
X7529000Y27214000D02*
X7529000Y25654000D01*
X7569000Y30704000D02*
X7569000Y29174000D01*
X7569000Y27214000D02*
X7569000Y25684000D01*
X7609000Y30672000D02*
X7609000Y29174000D01*
X7609000Y27214000D02*
X7609000Y25716000D01*
X7649000Y30639000D02*
X7649000Y29174000D01*
X7649000Y27214000D02*
X7649000Y25749000D01*
X7689000Y30605000D02*
X7689000Y29174000D01*
X7689000Y27214000D02*
X7689000Y25783000D01*
X7729000Y30569000D02*
X7729000Y29174000D01*
X7729000Y27214000D02*
X7729000Y25819000D01*
X7769000Y30533000D02*
X7769000Y29174000D01*
X7769000Y27214000D02*
X7769000Y25855000D01*
X7809000Y30495000D02*
X7809000Y25893000D01*
X7849000Y30456000D02*
X7849000Y25932000D01*
X7889000Y30416000D02*
X7889000Y25972000D01*
X7929000Y30374000D02*
X7929000Y26014000D01*
X7969000Y30331000D02*
X7969000Y26057000D01*
X8009000Y30286000D02*
X8009000Y26102000D01*
X8049000Y30239000D02*
X8049000Y26149000D01*
X8089000Y30191000D02*
X8089000Y26197000D01*
X8129000Y30140000D02*
X8129000Y26248000D01*
X8169000Y30088000D02*
X8169000Y26300000D01*
X8209000Y30033000D02*
X8209000Y26355000D01*
X8249000Y29975000D02*
X8249000Y26413000D01*
X8289000Y29915000D02*
X8289000Y26473000D01*
X8329000Y29852000D02*
X8329000Y26536000D01*
X8369000Y29785000D02*
X8369000Y26603000D01*
X8409000Y29714000D02*
X8409000Y26674000D01*
X8449000Y29639000D02*
X8449000Y26749000D01*
X8489000Y29558000D02*
X8489000Y26830000D01*
X8529000Y29472000D02*
X8529000Y26916000D01*
X8569000Y29378000D02*
X8569000Y27010000D01*
X8609000Y29275000D02*
X8609000Y27113000D01*
X8649000Y29160000D02*
X8649000Y27228000D01*
X8689000Y29028000D02*
X8689000Y27360000D01*
X8729000Y28870000D02*
X8729000Y27518000D01*
X8769000Y28662000D02*
X8769000Y27726000D01*
X2118000Y28194000D02*
X3318000Y28194000D01*
X2718000Y28844000D02*
X2718000Y27544000D01*
X8585820Y29373136D02*
G75*
G03*
X2550518Y29374000I-3017820J-1179136D01*
G01*
X8585820Y27014864D02*
G75*
G02*
X2550518Y27014000I-3017820J1179136D01*
G01*
X8585820Y27014864D02*
G75*
G03*
X8585482Y29374000I-3017820J1179136D01*
G01*
X4544000Y63091000D02*
X4544000Y61917000D01*
X2822000Y63091000D02*
X2822000Y61917000D01*
D10*
X81295904Y13882620D02*
X80819714Y13882620D01*
X80772095Y13406429D01*
X80819714Y13454048D01*
X80914952Y13501667D01*
X81153047Y13501667D01*
X81248285Y13454048D01*
X81295904Y13406429D01*
X81343523Y13311191D01*
X81343523Y13073096D01*
X81295904Y12977858D01*
X81248285Y12930239D01*
X81153047Y12882620D01*
X80914952Y12882620D01*
X80819714Y12930239D01*
X80772095Y12977858D01*
X82200666Y13882620D02*
X82010190Y13882620D01*
X81914952Y13835000D01*
X81867333Y13787381D01*
X81772095Y13644524D01*
X81724476Y13454048D01*
X81724476Y13073096D01*
X81772095Y12977858D01*
X81819714Y12930239D01*
X81914952Y12882620D01*
X82105428Y12882620D01*
X82200666Y12930239D01*
X82248285Y12977858D01*
X82295904Y13073096D01*
X82295904Y13311191D01*
X82248285Y13406429D01*
X82200666Y13454048D01*
X82105428Y13501667D01*
X81914952Y13501667D01*
X81819714Y13454048D01*
X81772095Y13406429D01*
X81724476Y13311191D01*
X7842285Y13787381D02*
X7889904Y13835000D01*
X7985142Y13882620D01*
X8223238Y13882620D01*
X8318476Y13835000D01*
X8366095Y13787381D01*
X8413714Y13692143D01*
X8413714Y13596905D01*
X8366095Y13454048D01*
X7794666Y12882620D01*
X8413714Y12882620D01*
X34163095Y46140620D02*
X34163095Y45331096D01*
X34210714Y45235858D01*
X34258333Y45188239D01*
X34353571Y45140620D01*
X34544047Y45140620D01*
X34639285Y45188239D01*
X34686904Y45235858D01*
X34734523Y45331096D01*
X34734523Y46140620D01*
X35115476Y46140620D02*
X35734523Y46140620D01*
X35401190Y45759667D01*
X35544047Y45759667D01*
X35639285Y45712048D01*
X35686904Y45664429D01*
X35734523Y45569191D01*
X35734523Y45331096D01*
X35686904Y45235858D01*
X35639285Y45188239D01*
X35544047Y45140620D01*
X35258333Y45140620D01*
X35163095Y45188239D01*
X35115476Y45235858D01*
X30440380Y28615096D02*
X30440380Y29281762D01*
X31440380Y28853191D01*
X30773714Y30091286D02*
X31440380Y30091286D01*
X30392761Y29853191D02*
X31107047Y29615096D01*
X31107047Y30234143D01*
X31440380Y30615096D02*
X30440380Y30615096D01*
X30916571Y30615096D02*
X30916571Y31186524D01*
X31440380Y31186524D02*
X30440380Y31186524D01*
X31345142Y32234143D02*
X31392761Y32186524D01*
X31440380Y32043667D01*
X31440380Y31948429D01*
X31392761Y31805572D01*
X31297523Y31710334D01*
X31202285Y31662715D01*
X31011809Y31615096D01*
X30868952Y31615096D01*
X30678476Y31662715D01*
X30583238Y31710334D01*
X30488000Y31805572D01*
X30440380Y31948429D01*
X30440380Y32043667D01*
X30488000Y32186524D01*
X30535619Y32234143D01*
X30440380Y33138905D02*
X30440380Y32662715D01*
X30916571Y32615096D01*
X30868952Y32662715D01*
X30821333Y32757953D01*
X30821333Y32996048D01*
X30868952Y33091286D01*
X30916571Y33138905D01*
X31011809Y33186524D01*
X31249904Y33186524D01*
X31345142Y33138905D01*
X31392761Y33091286D01*
X31440380Y32996048D01*
X31440380Y32757953D01*
X31392761Y32662715D01*
X31345142Y32615096D01*
X30440380Y33519858D02*
X30440380Y34186524D01*
X31440380Y33757953D01*
X30773714Y34996048D02*
X31440380Y34996048D01*
X30392761Y34757953D02*
X31107047Y34519858D01*
X31107047Y35138905D01*
X3980380Y57912096D02*
X4789904Y57912096D01*
X4885142Y57959715D01*
X4932761Y58007334D01*
X4980380Y58102572D01*
X4980380Y58293048D01*
X4932761Y58388286D01*
X4885142Y58435905D01*
X4789904Y58483524D01*
X3980380Y58483524D01*
X4980380Y59483524D02*
X4980380Y58912096D01*
X4980380Y59197810D02*
X3980380Y59197810D01*
X4123238Y59102572D01*
X4218476Y59007334D01*
X4266095Y58912096D01*
X21606428Y58396239D02*
X21749285Y58348620D01*
X21987380Y58348620D01*
X22082619Y58396239D01*
X22130238Y58443858D01*
X22177857Y58539096D01*
X22177857Y58634334D01*
X22130238Y58729572D01*
X22082619Y58777191D01*
X21987380Y58824810D01*
X21796904Y58872429D01*
X21701666Y58920048D01*
X21654047Y58967667D01*
X21606428Y59062905D01*
X21606428Y59158143D01*
X21654047Y59253381D01*
X21701666Y59301000D01*
X21796904Y59348620D01*
X22035000Y59348620D01*
X22177857Y59301000D01*
X22558809Y58396239D02*
X22701666Y58348620D01*
X22939761Y58348620D01*
X23035000Y58396239D01*
X23082619Y58443858D01*
X23130238Y58539096D01*
X23130238Y58634334D01*
X23082619Y58729572D01*
X23035000Y58777191D01*
X22939761Y58824810D01*
X22749285Y58872429D01*
X22654047Y58920048D01*
X22606428Y58967667D01*
X22558809Y59062905D01*
X22558809Y59158143D01*
X22606428Y59253381D01*
X22654047Y59301000D01*
X22749285Y59348620D01*
X22987380Y59348620D01*
X23130238Y59301000D01*
X23415952Y59348620D02*
X23987380Y59348620D01*
X23701666Y58348620D02*
X23701666Y59348620D01*
X24225476Y59348620D02*
X24844523Y59348620D01*
X24511190Y58967667D01*
X24654047Y58967667D01*
X24749285Y58920048D01*
X24796904Y58872429D01*
X24844523Y58777191D01*
X24844523Y58539096D01*
X24796904Y58443858D01*
X24749285Y58396239D01*
X24654047Y58348620D01*
X24368333Y58348620D01*
X24273095Y58396239D01*
X24225476Y58443858D01*
X25320714Y58348620D02*
X25511190Y58348620D01*
X25606428Y58396239D01*
X25654047Y58443858D01*
X25749285Y58586715D01*
X25796904Y58777191D01*
X25796904Y59158143D01*
X25749285Y59253381D01*
X25701666Y59301000D01*
X25606428Y59348620D01*
X25415952Y59348620D01*
X25320714Y59301000D01*
X25273095Y59253381D01*
X25225476Y59158143D01*
X25225476Y58920048D01*
X25273095Y58824810D01*
X25320714Y58777191D01*
X25415952Y58729572D01*
X25606428Y58729572D01*
X25701666Y58777191D01*
X25749285Y58824810D01*
X25796904Y58920048D01*
X26177857Y58396239D02*
X26320714Y58348620D01*
X26558809Y58348620D01*
X26654047Y58396239D01*
X26701666Y58443858D01*
X26749285Y58539096D01*
X26749285Y58634334D01*
X26701666Y58729572D01*
X26654047Y58777191D01*
X26558809Y58824810D01*
X26368333Y58872429D01*
X26273095Y58920048D01*
X26225476Y58967667D01*
X26177857Y59062905D01*
X26177857Y59158143D01*
X26225476Y59253381D01*
X26273095Y59301000D01*
X26368333Y59348620D01*
X26606428Y59348620D01*
X26749285Y59301000D01*
X27511190Y58872429D02*
X27177857Y58872429D01*
X27177857Y58348620D02*
X27177857Y59348620D01*
X27654047Y59348620D01*
X28225476Y59348620D02*
X28320714Y59348620D01*
X28415952Y59301000D01*
X28463571Y59253381D01*
X28511190Y59158143D01*
X28558809Y58967667D01*
X28558809Y58729572D01*
X28511190Y58539096D01*
X28463571Y58443858D01*
X28415952Y58396239D01*
X28320714Y58348620D01*
X28225476Y58348620D01*
X28130238Y58396239D01*
X28082619Y58443858D01*
X28035000Y58539096D01*
X27987380Y58729572D01*
X27987380Y58967667D01*
X28035000Y59158143D01*
X28082619Y59253381D01*
X28130238Y59301000D01*
X28225476Y59348620D01*
X29415952Y59015286D02*
X29415952Y58348620D01*
X29177857Y59396239D02*
X28939761Y58681953D01*
X29558809Y58681953D01*
X30130238Y59348620D02*
X30225476Y59348620D01*
X30320714Y59301000D01*
X30368333Y59253381D01*
X30415952Y59158143D01*
X30463571Y58967667D01*
X30463571Y58729572D01*
X30415952Y58539096D01*
X30368333Y58443858D01*
X30320714Y58396239D01*
X30225476Y58348620D01*
X30130238Y58348620D01*
X30035000Y58396239D01*
X29987380Y58443858D01*
X29939761Y58539096D01*
X29892142Y58729572D01*
X29892142Y58967667D01*
X29939761Y59158143D01*
X29987380Y59253381D01*
X30035000Y59301000D01*
X30130238Y59348620D01*
X80010095Y41060620D02*
X80010095Y40251096D01*
X80057714Y40155858D01*
X80105333Y40108239D01*
X80200571Y40060620D01*
X80391047Y40060620D01*
X80486285Y40108239D01*
X80533904Y40155858D01*
X80581523Y40251096D01*
X80581523Y41060620D01*
X80962476Y41060620D02*
X81629142Y41060620D01*
X81200571Y40060620D01*
X76287380Y27948286D02*
X76287380Y28614953D01*
X77287380Y28186381D01*
X76620714Y29424477D02*
X77287380Y29424477D01*
X76239761Y29186381D02*
X76954047Y28948286D01*
X76954047Y29567334D01*
X77287380Y29948286D02*
X76287380Y29948286D01*
X76763571Y29948286D02*
X76763571Y30519715D01*
X77287380Y30519715D02*
X76287380Y30519715D01*
X77192142Y31567334D02*
X77239761Y31519715D01*
X77287380Y31376858D01*
X77287380Y31281620D01*
X77239761Y31138762D01*
X77144523Y31043524D01*
X77049285Y30995905D01*
X76858809Y30948286D01*
X76715952Y30948286D01*
X76525476Y30995905D01*
X76430238Y31043524D01*
X76335000Y31138762D01*
X76287380Y31281620D01*
X76287380Y31376858D01*
X76335000Y31519715D01*
X76382619Y31567334D01*
X76287380Y31900667D02*
X76287380Y32519715D01*
X76668333Y32186381D01*
X76668333Y32329239D01*
X76715952Y32424477D01*
X76763571Y32472096D01*
X76858809Y32519715D01*
X77096904Y32519715D01*
X77192142Y32472096D01*
X77239761Y32424477D01*
X77287380Y32329239D01*
X77287380Y32043524D01*
X77239761Y31948286D01*
X77192142Y31900667D01*
X76382619Y32900667D02*
X76335000Y32948286D01*
X76287380Y33043524D01*
X76287380Y33281620D01*
X76335000Y33376858D01*
X76382619Y33424477D01*
X76477857Y33472096D01*
X76573095Y33472096D01*
X76715952Y33424477D01*
X77287380Y32853048D01*
X77287380Y33472096D01*
X64643095Y41060620D02*
X64643095Y40251096D01*
X64690714Y40155858D01*
X64738333Y40108239D01*
X64833571Y40060620D01*
X65024047Y40060620D01*
X65119285Y40108239D01*
X65166904Y40155858D01*
X65214523Y40251096D01*
X65214523Y41060620D01*
X66119285Y41060620D02*
X65928809Y41060620D01*
X65833571Y41013000D01*
X65785952Y40965381D01*
X65690714Y40822524D01*
X65643095Y40632048D01*
X65643095Y40251096D01*
X65690714Y40155858D01*
X65738333Y40108239D01*
X65833571Y40060620D01*
X66024047Y40060620D01*
X66119285Y40108239D01*
X66166904Y40155858D01*
X66214523Y40251096D01*
X66214523Y40489191D01*
X66166904Y40584429D01*
X66119285Y40632048D01*
X66024047Y40679667D01*
X65833571Y40679667D01*
X65738333Y40632048D01*
X65690714Y40584429D01*
X65643095Y40489191D01*
X61174380Y28075286D02*
X61174380Y28741953D01*
X62174380Y28313381D01*
X61507714Y29551477D02*
X62174380Y29551477D01*
X61126761Y29313381D02*
X61841047Y29075286D01*
X61841047Y29694334D01*
X62174380Y30075286D02*
X61174380Y30075286D01*
X61650571Y30075286D02*
X61650571Y30646715D01*
X62174380Y30646715D02*
X61174380Y30646715D01*
X62079142Y31694334D02*
X62126761Y31646715D01*
X62174380Y31503858D01*
X62174380Y31408620D01*
X62126761Y31265762D01*
X62031523Y31170524D01*
X61936285Y31122905D01*
X61745809Y31075286D01*
X61602952Y31075286D01*
X61412476Y31122905D01*
X61317238Y31170524D01*
X61222000Y31265762D01*
X61174380Y31408620D01*
X61174380Y31503858D01*
X61222000Y31646715D01*
X61269619Y31694334D01*
X61174380Y32313381D02*
X61174380Y32408620D01*
X61222000Y32503858D01*
X61269619Y32551477D01*
X61364857Y32599096D01*
X61555333Y32646715D01*
X61793428Y32646715D01*
X61983904Y32599096D01*
X62079142Y32551477D01*
X62126761Y32503858D01*
X62174380Y32408620D01*
X62174380Y32313381D01*
X62126761Y32218143D01*
X62079142Y32170524D01*
X61983904Y32122905D01*
X61793428Y32075286D01*
X61555333Y32075286D01*
X61364857Y32122905D01*
X61269619Y32170524D01*
X61222000Y32218143D01*
X61174380Y32313381D01*
X61602952Y33218143D02*
X61555333Y33122905D01*
X61507714Y33075286D01*
X61412476Y33027667D01*
X61364857Y33027667D01*
X61269619Y33075286D01*
X61222000Y33122905D01*
X61174380Y33218143D01*
X61174380Y33408620D01*
X61222000Y33503858D01*
X61269619Y33551477D01*
X61364857Y33599096D01*
X61412476Y33599096D01*
X61507714Y33551477D01*
X61555333Y33503858D01*
X61602952Y33408620D01*
X61602952Y33218143D01*
X61650571Y33122905D01*
X61698190Y33075286D01*
X61793428Y33027667D01*
X61983904Y33027667D01*
X62079142Y33075286D01*
X62126761Y33122905D01*
X62174380Y33218143D01*
X62174380Y33408620D01*
X62126761Y33503858D01*
X62079142Y33551477D01*
X61983904Y33599096D01*
X61793428Y33599096D01*
X61698190Y33551477D01*
X61650571Y33503858D01*
X61602952Y33408620D01*
X49149095Y46013620D02*
X49149095Y45204096D01*
X49196714Y45108858D01*
X49244333Y45061239D01*
X49339571Y45013620D01*
X49530047Y45013620D01*
X49625285Y45061239D01*
X49672904Y45108858D01*
X49720523Y45204096D01*
X49720523Y46013620D01*
X50672904Y46013620D02*
X50196714Y46013620D01*
X50149095Y45537429D01*
X50196714Y45585048D01*
X50291952Y45632667D01*
X50530047Y45632667D01*
X50625285Y45585048D01*
X50672904Y45537429D01*
X50720523Y45442191D01*
X50720523Y45204096D01*
X50672904Y45108858D01*
X50625285Y45061239D01*
X50530047Y45013620D01*
X50291952Y45013620D01*
X50196714Y45061239D01*
X50149095Y45108858D01*
X45680380Y34552286D02*
X45680380Y35218953D01*
X46680380Y34790381D01*
X46013714Y36028477D02*
X46680380Y36028477D01*
X45632761Y35790381D02*
X46347047Y35552286D01*
X46347047Y36171334D01*
X46680380Y36552286D02*
X45680380Y36552286D01*
X46156571Y36552286D02*
X46156571Y37123715D01*
X46680380Y37123715D02*
X45680380Y37123715D01*
X46585142Y38171334D02*
X46632761Y38123715D01*
X46680380Y37980858D01*
X46680380Y37885620D01*
X46632761Y37742762D01*
X46537523Y37647524D01*
X46442285Y37599905D01*
X46251809Y37552286D01*
X46108952Y37552286D01*
X45918476Y37599905D01*
X45823238Y37647524D01*
X45728000Y37742762D01*
X45680380Y37885620D01*
X45680380Y37980858D01*
X45728000Y38123715D01*
X45775619Y38171334D01*
X45680380Y38790381D02*
X45680380Y38885620D01*
X45728000Y38980858D01*
X45775619Y39028477D01*
X45870857Y39076096D01*
X46061333Y39123715D01*
X46299428Y39123715D01*
X46489904Y39076096D01*
X46585142Y39028477D01*
X46632761Y38980858D01*
X46680380Y38885620D01*
X46680380Y38790381D01*
X46632761Y38695143D01*
X46585142Y38647524D01*
X46489904Y38599905D01*
X46299428Y38552286D01*
X46061333Y38552286D01*
X45870857Y38599905D01*
X45775619Y38647524D01*
X45728000Y38695143D01*
X45680380Y38790381D01*
X45680380Y39742762D02*
X45680380Y39838000D01*
X45728000Y39933239D01*
X45775619Y39980858D01*
X45870857Y40028477D01*
X46061333Y40076096D01*
X46299428Y40076096D01*
X46489904Y40028477D01*
X46585142Y39980858D01*
X46632761Y39933239D01*
X46680380Y39838000D01*
X46680380Y39742762D01*
X46632761Y39647524D01*
X46585142Y39599905D01*
X46489904Y39552286D01*
X46299428Y39504667D01*
X46061333Y39504667D01*
X45870857Y39552286D01*
X45775619Y39599905D01*
X45728000Y39647524D01*
X45680380Y39742762D01*
X64643095Y66333620D02*
X64643095Y65524096D01*
X64690714Y65428858D01*
X64738333Y65381239D01*
X64833571Y65333620D01*
X65024047Y65333620D01*
X65119285Y65381239D01*
X65166904Y65428858D01*
X65214523Y65524096D01*
X65214523Y66333620D01*
X66119285Y66000286D02*
X66119285Y65333620D01*
X65881190Y66381239D02*
X65643095Y65666953D01*
X66262142Y65666953D01*
X60920380Y52237096D02*
X60920380Y52903762D01*
X61920380Y52475191D01*
X61253714Y53713286D02*
X61920380Y53713286D01*
X60872761Y53475191D02*
X61587047Y53237096D01*
X61587047Y53856143D01*
X61920380Y54237096D02*
X60920380Y54237096D01*
X61396571Y54237096D02*
X61396571Y54808524D01*
X61920380Y54808524D02*
X60920380Y54808524D01*
X61825142Y55856143D02*
X61872761Y55808524D01*
X61920380Y55665667D01*
X61920380Y55570429D01*
X61872761Y55427572D01*
X61777523Y55332334D01*
X61682285Y55284715D01*
X61491809Y55237096D01*
X61348952Y55237096D01*
X61158476Y55284715D01*
X61063238Y55332334D01*
X60968000Y55427572D01*
X60920380Y55570429D01*
X60920380Y55665667D01*
X60968000Y55808524D01*
X61015619Y55856143D01*
X61920380Y56808524D02*
X61920380Y56237096D01*
X61920380Y56522810D02*
X60920380Y56522810D01*
X61063238Y56427572D01*
X61158476Y56332334D01*
X61206095Y56237096D01*
X60920380Y57141858D02*
X60920380Y57760905D01*
X61301333Y57427572D01*
X61301333Y57570429D01*
X61348952Y57665667D01*
X61396571Y57713286D01*
X61491809Y57760905D01*
X61729904Y57760905D01*
X61825142Y57713286D01*
X61872761Y57665667D01*
X61920380Y57570429D01*
X61920380Y57284715D01*
X61872761Y57189477D01*
X61825142Y57141858D01*
X61348952Y58332334D02*
X61301333Y58237096D01*
X61253714Y58189477D01*
X61158476Y58141858D01*
X61110857Y58141858D01*
X61015619Y58189477D01*
X60968000Y58237096D01*
X60920380Y58332334D01*
X60920380Y58522810D01*
X60968000Y58618048D01*
X61015619Y58665667D01*
X61110857Y58713286D01*
X61158476Y58713286D01*
X61253714Y58665667D01*
X61301333Y58618048D01*
X61348952Y58522810D01*
X61348952Y58332334D01*
X61396571Y58237096D01*
X61444190Y58189477D01*
X61539428Y58141858D01*
X61729904Y58141858D01*
X61825142Y58189477D01*
X61872761Y58237096D01*
X61920380Y58332334D01*
X61920380Y58522810D01*
X61872761Y58618048D01*
X61825142Y58665667D01*
X61729904Y58713286D01*
X61539428Y58713286D01*
X61444190Y58665667D01*
X61396571Y58618048D01*
X61348952Y58522810D01*
X18796095Y46140620D02*
X18796095Y45331096D01*
X18843714Y45235858D01*
X18891333Y45188239D01*
X18986571Y45140620D01*
X19177047Y45140620D01*
X19272285Y45188239D01*
X19319904Y45235858D01*
X19367523Y45331096D01*
X19367523Y46140620D01*
X19796095Y46045381D02*
X19843714Y46093000D01*
X19938952Y46140620D01*
X20177047Y46140620D01*
X20272285Y46093000D01*
X20319904Y46045381D01*
X20367523Y45950143D01*
X20367523Y45854905D01*
X20319904Y45712048D01*
X19748476Y45140620D01*
X20367523Y45140620D01*
X15327380Y28742096D02*
X15327380Y29408762D01*
X16327380Y28980191D01*
X15660714Y30218286D02*
X16327380Y30218286D01*
X15279761Y29980191D02*
X15994047Y29742096D01*
X15994047Y30361143D01*
X16327380Y30742096D02*
X15327380Y30742096D01*
X15803571Y30742096D02*
X15803571Y31313524D01*
X16327380Y31313524D02*
X15327380Y31313524D01*
X16232142Y32361143D02*
X16279761Y32313524D01*
X16327380Y32170667D01*
X16327380Y32075429D01*
X16279761Y31932572D01*
X16184523Y31837334D01*
X16089285Y31789715D01*
X15898809Y31742096D01*
X15755952Y31742096D01*
X15565476Y31789715D01*
X15470238Y31837334D01*
X15375000Y31932572D01*
X15327380Y32075429D01*
X15327380Y32170667D01*
X15375000Y32313524D01*
X15422619Y32361143D01*
X15327380Y33265905D02*
X15327380Y32789715D01*
X15803571Y32742096D01*
X15755952Y32789715D01*
X15708333Y32884953D01*
X15708333Y33123048D01*
X15755952Y33218286D01*
X15803571Y33265905D01*
X15898809Y33313524D01*
X16136904Y33313524D01*
X16232142Y33265905D01*
X16279761Y33218286D01*
X16327380Y33123048D01*
X16327380Y32884953D01*
X16279761Y32789715D01*
X16232142Y32742096D01*
X15327380Y33646858D02*
X15327380Y34313524D01*
X16327380Y33884953D01*
X15660714Y35123048D02*
X16327380Y35123048D01*
X15279761Y34884953D02*
X15994047Y34646858D01*
X15994047Y35265905D01*
X47995380Y63206334D02*
X47519190Y62873000D01*
X47995380Y62634905D02*
X46995380Y62634905D01*
X46995380Y63015858D01*
X47043000Y63111096D01*
X47090619Y63158715D01*
X47185857Y63206334D01*
X47328714Y63206334D01*
X47423952Y63158715D01*
X47471571Y63111096D01*
X47519190Y63015858D01*
X47519190Y62634905D01*
X47995380Y64158715D02*
X47995380Y63587286D01*
X47995380Y63873000D02*
X46995380Y63873000D01*
X47138238Y63777762D01*
X47233476Y63682524D01*
X47281095Y63587286D01*
X73620333Y42695858D02*
X73572714Y42648239D01*
X73429857Y42600620D01*
X73334619Y42600620D01*
X73191761Y42648239D01*
X73096523Y42743477D01*
X73048904Y42838715D01*
X73001285Y43029191D01*
X73001285Y43172048D01*
X73048904Y43362524D01*
X73096523Y43457762D01*
X73191761Y43553000D01*
X73334619Y43600620D01*
X73429857Y43600620D01*
X73572714Y43553000D01*
X73620333Y43505381D01*
X73953666Y43600620D02*
X74620333Y43600620D01*
X74191761Y42600620D01*
X61301333Y42822858D02*
X61253714Y42775239D01*
X61110857Y42727620D01*
X61015619Y42727620D01*
X60872761Y42775239D01*
X60777523Y42870477D01*
X60729904Y42965715D01*
X60682285Y43156191D01*
X60682285Y43299048D01*
X60729904Y43489524D01*
X60777523Y43584762D01*
X60872761Y43680000D01*
X61015619Y43727620D01*
X61110857Y43727620D01*
X61253714Y43680000D01*
X61301333Y43632381D01*
X62158476Y43727620D02*
X61968000Y43727620D01*
X61872761Y43680000D01*
X61825142Y43632381D01*
X61729904Y43489524D01*
X61682285Y43299048D01*
X61682285Y42918096D01*
X61729904Y42822858D01*
X61777523Y42775239D01*
X61872761Y42727620D01*
X62063238Y42727620D01*
X62158476Y42775239D01*
X62206095Y42822858D01*
X62253714Y42918096D01*
X62253714Y43156191D01*
X62206095Y43251429D01*
X62158476Y43299048D01*
X62063238Y43346667D01*
X61872761Y43346667D01*
X61777523Y43299048D01*
X61729904Y43251429D01*
X61682285Y43156191D01*
X46061333Y47902858D02*
X46013714Y47855239D01*
X45870857Y47807620D01*
X45775619Y47807620D01*
X45632761Y47855239D01*
X45537523Y47950477D01*
X45489904Y48045715D01*
X45442285Y48236191D01*
X45442285Y48379048D01*
X45489904Y48569524D01*
X45537523Y48664762D01*
X45632761Y48760000D01*
X45775619Y48807620D01*
X45870857Y48807620D01*
X46013714Y48760000D01*
X46061333Y48712381D01*
X46966095Y48807620D02*
X46489904Y48807620D01*
X46442285Y48331429D01*
X46489904Y48379048D01*
X46585142Y48426667D01*
X46823238Y48426667D01*
X46918476Y48379048D01*
X46966095Y48331429D01*
X47013714Y48236191D01*
X47013714Y47998096D01*
X46966095Y47902858D01*
X46918476Y47855239D01*
X46823238Y47807620D01*
X46585142Y47807620D01*
X46489904Y47855239D01*
X46442285Y47902858D01*
X61174333Y68349858D02*
X61126714Y68302239D01*
X60983857Y68254620D01*
X60888619Y68254620D01*
X60745761Y68302239D01*
X60650523Y68397477D01*
X60602904Y68492715D01*
X60555285Y68683191D01*
X60555285Y68826048D01*
X60602904Y69016524D01*
X60650523Y69111762D01*
X60745761Y69207000D01*
X60888619Y69254620D01*
X60983857Y69254620D01*
X61126714Y69207000D01*
X61174333Y69159381D01*
X62031476Y68921286D02*
X62031476Y68254620D01*
X61793380Y69302239D02*
X61555285Y68587953D01*
X62174333Y68587953D01*
X30841333Y47902858D02*
X30793714Y47855239D01*
X30650857Y47807620D01*
X30555619Y47807620D01*
X30412761Y47855239D01*
X30317523Y47950477D01*
X30269904Y48045715D01*
X30222285Y48236191D01*
X30222285Y48379048D01*
X30269904Y48569524D01*
X30317523Y48664762D01*
X30412761Y48760000D01*
X30555619Y48807620D01*
X30650857Y48807620D01*
X30793714Y48760000D01*
X30841333Y48712381D01*
X31174666Y48807620D02*
X31793714Y48807620D01*
X31460380Y48426667D01*
X31603238Y48426667D01*
X31698476Y48379048D01*
X31746095Y48331429D01*
X31793714Y48236191D01*
X31793714Y47998096D01*
X31746095Y47902858D01*
X31698476Y47855239D01*
X31603238Y47807620D01*
X31317523Y47807620D01*
X31222285Y47855239D01*
X31174666Y47902858D01*
X15601333Y47902858D02*
X15553714Y47855239D01*
X15410857Y47807620D01*
X15315619Y47807620D01*
X15172761Y47855239D01*
X15077523Y47950477D01*
X15029904Y48045715D01*
X14982285Y48236191D01*
X14982285Y48379048D01*
X15029904Y48569524D01*
X15077523Y48664762D01*
X15172761Y48760000D01*
X15315619Y48807620D01*
X15410857Y48807620D01*
X15553714Y48760000D01*
X15601333Y48712381D01*
X15982285Y48712381D02*
X16029904Y48760000D01*
X16125142Y48807620D01*
X16363238Y48807620D01*
X16458476Y48760000D01*
X16506095Y48712381D01*
X16553714Y48617143D01*
X16553714Y48521905D01*
X16506095Y48379048D01*
X15934666Y47807620D01*
X16553714Y47807620D01*
X4468952Y23772858D02*
X4421333Y23725239D01*
X4278476Y23677620D01*
X4183238Y23677620D01*
X4040380Y23725239D01*
X3945142Y23820477D01*
X3897523Y23915715D01*
X3849904Y24106191D01*
X3849904Y24249048D01*
X3897523Y24439524D01*
X3945142Y24534762D01*
X4040380Y24630000D01*
X4183238Y24677620D01*
X4278476Y24677620D01*
X4421333Y24630000D01*
X4468952Y24582381D01*
X5421333Y23677620D02*
X4849904Y23677620D01*
X5135619Y23677620D02*
X5135619Y24677620D01*
X5040380Y24534762D01*
X4945142Y24439524D01*
X4849904Y24391905D01*
X6040380Y24677620D02*
X6135619Y24677620D01*
X6230857Y24630000D01*
X6278476Y24582381D01*
X6326095Y24487143D01*
X6373714Y24296667D01*
X6373714Y24058572D01*
X6326095Y23868096D01*
X6278476Y23772858D01*
X6230857Y23725239D01*
X6135619Y23677620D01*
X6040380Y23677620D01*
X5945142Y23725239D01*
X5897523Y23772858D01*
X5849904Y23868096D01*
X5802285Y24058572D01*
X5802285Y24296667D01*
X5849904Y24487143D01*
X5897523Y24582381D01*
X5945142Y24630000D01*
X6040380Y24677620D01*
X7326095Y23677620D02*
X6754666Y23677620D01*
X7040380Y23677620D02*
X7040380Y24677620D01*
X6945142Y24534762D01*
X6849904Y24439524D01*
X6754666Y24391905D01*
X2262142Y62190334D02*
X2309761Y62142715D01*
X2357380Y61999858D01*
X2357380Y61904620D01*
X2309761Y61761762D01*
X2214523Y61666524D01*
X2119285Y61618905D01*
X1928809Y61571286D01*
X1785952Y61571286D01*
X1595476Y61618905D01*
X1500238Y61666524D01*
X1405000Y61761762D01*
X1357380Y61904620D01*
X1357380Y61999858D01*
X1405000Y62142715D01*
X1452619Y62190334D01*
X2357380Y63142715D02*
X2357380Y62571286D01*
X2357380Y62857000D02*
X1357380Y62857000D01*
X1500238Y62761762D01*
X1595476Y62666524D01*
X1643095Y62571286D01*
M02*
