M48
; DRILL file {KiCad (5.1.8)-1} date 03/23/21 16:42:50
; FORMAT={-:-/ absolute / metric / decimal}
; #@! TF.CreationDate,2021-03-23T16:42:50+09:00
; #@! TF.GenerationSoftware,Kicad,Pcbnew,(5.1.8)-1
FMAT,2
METRIC
T1C0.400
T2C0.700
T3C0.800
%
G90
G05
T1
X3.683Y45.974
X4.953Y57.404
X5.929Y32.7
X6.858Y33.909
X8.128Y30.988
X8.128Y19.304
X9.398Y25.654
X10.287Y27.559
X11.938Y61.214
X13.081Y17.272
X13.081Y15.875
X14.097Y37.084
X15.113Y43.434
X15.113Y20.574
X15.621Y59.055
X16.383Y19.304
X17.653Y42.164
X18.288Y62.484
X18.288Y34.544
X18.415Y29.464
X20.701Y16.637
X21.463Y33.274
X21.463Y26.924
X21.463Y24.384
X22.098Y54.229
X22.138Y61.254
X22.168Y16.694
X22.352Y35.814
X22.733Y28.194
X22.733Y25.654
X23.368Y30.734
X24.638Y62.484
X24.638Y40.894
X24.638Y31.369
X25.273Y38.989
X25.273Y33.909
X27.178Y18.415
X29.173Y35.724
X29.718Y57.404
X30.353Y43.434
X30.353Y20.574
X31.623Y19.304
X35.433Y49.149
X36.703Y25.654
X38.703Y42.164
X39.116Y18.288
X39.624Y37.086
X39.878Y39.624
X40.513Y59.944
X40.513Y35.814
X43.18Y18.288
X44.45Y35.433
X44.958Y61.214
X45.593Y33.274
X45.593Y28.194
X45.593Y20.574
X45.593Y18.415
X46.863Y19.304
X47.643Y65.169
X48.514Y34.671
X49.022Y52.197
X50.038Y23.114
X52.578Y66.929
X52.618Y61.254
X53.476Y68.072
X54.102Y38.1
X54.478Y45.344
X54.483Y57.404
X55.118Y34.417
X55.88Y41.529
X57.545Y15.698
X57.658Y20.828
X58.928Y54.864
X60.833Y23.114
X62.103Y19.939
X63.759Y17.394
X67.31Y31.623
X67.818Y47.244
X67.818Y23.114
X67.818Y20.828
X67.818Y18.923
X67.818Y13.589
X69.723Y59.944
X69.723Y33.909
X76.073Y23.114
X76.073Y20.828
X76.073Y18.923
X76.073Y13.589
X77.343Y19.939
X79.883Y13.589
X81.153Y49.784
T2
X49.403Y65.019
X49.403Y63.119
T3
X14.518Y46.609
X17.018Y46.609
X57.658Y38.354
X57.658Y35.814
X57.658Y33.274
X57.658Y30.734
X57.658Y28.194
X57.658Y25.654
X57.658Y23.114
X65.278Y38.354
X65.278Y35.814
X65.278Y33.274
X65.278Y30.734
X65.278Y28.194
X65.278Y25.654
X65.278Y23.114
X60.238Y66.929
X62.738Y66.929
X27.178Y43.434
X27.178Y40.894
X27.178Y38.354
X27.178Y35.814
X27.178Y33.274
X27.178Y30.734
X27.178Y28.194
X27.178Y25.654
X27.178Y23.114
X27.178Y20.574
X34.798Y43.434
X34.798Y40.894
X34.798Y38.354
X34.798Y35.814
X34.798Y33.274
X34.798Y30.734
X34.798Y28.194
X34.798Y25.654
X34.798Y23.114
X34.798Y20.574
X72.898Y38.354
X72.898Y35.814
X72.898Y33.274
X72.898Y30.734
X72.898Y28.194
X72.898Y25.654
X72.898Y23.114
X80.518Y38.354
X80.518Y35.814
X80.518Y33.274
X80.518Y30.734
X80.518Y28.194
X80.518Y25.654
X80.518Y23.114
X4.318Y28.194
X6.818Y28.194
X29.758Y46.609
X32.258Y46.609
X3.683Y63.754
X3.683Y61.254
X44.998Y46.609
X47.498Y46.609
X11.938Y43.434
X11.938Y40.894
X11.938Y38.354
X11.938Y35.814
X11.938Y33.274
X11.938Y30.734
X11.938Y28.194
X11.938Y25.654
X11.938Y23.114
X11.938Y20.574
X19.558Y43.434
X19.558Y40.894
X19.558Y38.354
X19.558Y35.814
X19.558Y33.274
X19.558Y30.734
X19.558Y28.194
X19.558Y25.654
X19.558Y23.114
X19.558Y20.574
X60.238Y41.529
X62.738Y41.529
X57.658Y63.754
X57.658Y61.214
X57.658Y58.674
X57.658Y56.134
X57.658Y53.594
X57.658Y51.054
X57.658Y48.514
X57.658Y45.974
X65.278Y63.754
X65.278Y61.214
X65.278Y58.674
X65.278Y56.134
X65.278Y53.594
X65.278Y51.054
X65.278Y48.514
X65.278Y45.974
X75.438Y41.529
X77.938Y41.529
X6.858Y66.294
X6.858Y51.054
X9.398Y66.294
X9.398Y51.054
X11.938Y66.294
X11.938Y51.054
X14.478Y66.294
X14.478Y51.054
X17.018Y66.294
X17.018Y51.054
X19.558Y66.294
X19.558Y51.054
X22.098Y66.294
X22.098Y51.054
X24.638Y66.294
X24.638Y51.054
X27.178Y66.294
X27.178Y51.054
X29.718Y66.294
X29.718Y51.054
X32.258Y66.294
X32.258Y51.054
X34.798Y66.294
X34.798Y51.054
X37.338Y66.294
X37.338Y51.054
X39.878Y66.294
X39.878Y51.054
X42.418Y66.294
X42.418Y51.054
X44.958Y66.294
X44.958Y51.054
X42.418Y43.434
X42.418Y40.894
X42.418Y38.354
X42.418Y35.814
X42.418Y33.274
X42.418Y30.734
X42.418Y28.194
X50.038Y43.434
X50.038Y40.894
X50.038Y38.354
X50.038Y35.814
X50.038Y33.274
X50.038Y30.734
X50.038Y28.194
T0
M30
